<svg xmlns="http://www.w3.org/2000/svg" xmlns:xlink="http://www.w3.org/1999/xlink" width="256" height="256">
    <defs/>
    <defs>
        <radialGradient id="b" cx="50%" cy="50%" r="50%" fx="50%" fy="50%">
            <stop offset="0%" stop-color="#1474E9"/>
            <stop offset="100%" stop-color="#1D81F9"/>
        </radialGradient>
        <linearGradient id="c" x1="50%" x2="50%" y1="0%" y2="100%">
            <stop offset="1.42%" stop-color="#1474E9"/>
            <stop offset="100%" stop-color="#5F39C2"/>
        </linearGradient>
        <filter id="e" width="110%" height="109.4%" x="-5%" y="-4.7%" filterUnits="objectBoundingBox">
            <feOffset in="SourceAlpha" result="shadowOffsetOuter1"/>
            <feGaussianBlur in="shadowOffsetOuter1" result="shadowBlurOuter1" stdDeviation="2.5"/>
            <feColorMatrix in="shadowBlurOuter1" values="0 0 0 0 0 0 0 0 0 0 0 0 0 0 0 0 0 0 0.1 0"/>
        </filter>
        <rect id="a" width="256" height="256" x="0" y="0" rx="70"/>
        <path id="f"
              d="M129.37 84c24.17 0 35.5 12.3 39.81 23.8l-17.76 6.2c-2.63-6.3-9.1-13.07-21.88-13.07-11.99 0-20.32 7.66-20.32 16.28 0 7.19 4.67 12.62 13.82 14.53l16.99 3.36c20.81 3.99 31.97 16.6 31.97 32.57 0 17.56-14.82 34.33-41.8 34.33-25.9 0-39.74-13.83-44.2-28.1l18.34-6.4c3 9.52 11.53 17.25 25.87 17.25 14.15 0 21.48-6.86 21.48-15.64 0-7.35-5.67-13.26-15.82-15.33l-16.65-3.36c-17.99-3.5-29.98-14.85-29.98-31.77 0-19 18.15-34.65 40.13-34.65zM62 99.35l8 .94V132c2.67 4.46 4 8.46 4 12 0 5.31-4 10-8 10s-8-4.69-8-10c0-3.54 1.33-7.54 4-12V99.35zm59.05-56.52a9800.8 9800.8 0 0073.19 21.05c3.12.75 5.56 4.78 2 6.6-3.68 1.9-22.88 11.16-31.16 14.65C145.71 69.1 104.64 67.36 85.1 96c-8.97-.99-33.2-3.8-34.54-4.02-3.41-.55-3.41-3.93 0-6.29 2.07-1.43 57.42-40.18 60.4-41.9 2.72-1.58 4.79-2.59 10.09-.96z"/>
    </defs>
    <g fill="none" fill-rule="evenodd">
        <mask id="d" fill="#fff">
            <use xlink:href="#a"/>
        </mask>
        <use fill="url(#b)" xlink:href="#a"/>
        <use fill="url(#c)" fill-opacity=".5" xlink:href="#a"/>
        <g fill-rule="nonzero" mask="url(#d)">
            <use fill="#000" filter="url(#e)" xlink:href="#f"/>
            <use fill="#FFF" xlink:href="#f"/>
        </g>
    </g>
</svg>